<svg xmlns="http://www.w3.org/2000/svg" viewBox="0 0 96 96" role="img" aria-labelledby="title desc">
  <title id="title">岚迹 LumaTrail logo</title>
  <desc id="desc">A blue location pin flowing into a green route with a warm sun accent.</desc>
  <defs>
    <linearGradient id="pin" x1="18" y1="14" x2="58" y2="70" gradientUnits="userSpaceOnUse">
      <stop offset="0" stop-color="#0a73ff"/>
      <stop offset="1" stop-color="#0058bc"/>
    </linearGradient>
    <linearGradient id="trail" x1="34" y1="68" x2="86" y2="45" gradientUnits="userSpaceOnUse">
      <stop offset="0" stop-color="#008733"/>
      <stop offset="1" stop-color="#4fc56a"/>
    </linearGradient>
    <filter id="shadow" x="-20%" y="-20%" width="140%" height="150%" color-interpolation-filters="sRGB">
      <feDropShadow dx="0" dy="7" stdDeviation="7" flood-color="#0058bc" flood-opacity="0.22"/>
    </filter>
  </defs>
  <rect width="96" height="96" rx="26" fill="#f9fbff"/>
  <path filter="url(#shadow)" d="M35.5 12C23.1 12 13 22.1 13 34.3c0 17.9 22.5 40.9 22.5 40.9S58 52.2 58 34.3C58 22.1 47.9 12 35.5 12Z" fill="url(#pin)"/>
  <circle cx="35.5" cy="34.4" r="8.4" fill="#f9fbff"/>
  <path d="M42 71c8.8-7.4 18.5-9.7 29-6.8 6.5 1.8 13.4-.6 17.4-6.4" fill="none" stroke="url(#trail)" stroke-width="8" stroke-linecap="round"/>
  <path d="M55 72c7.8-2.6 15.5-2.4 23 1.5" fill="none" stroke="#008733" stroke-width="4" stroke-linecap="round" opacity="0.45"/>
  <circle cx="78.5" cy="49.5" r="8" fill="#fd8b00"/>
  <path d="M78.5 35.5v5M78.5 59v5M64.5 49.5h5M88 49.5h5M68.6 39.6l3.6 3.6M85 56l3.6 3.6M88.6 39.6 85 43.2M72.2 56l-3.6 3.6" stroke="#fd8b00" stroke-width="3.2" stroke-linecap="round"/>
</svg>
